<?xml version="1.0" encoding="UTF-8"?>
<svg width="1280" height="640" xmlns="http://www.w3.org/2000/svg" viewBox="0 0 1280 640">
  <defs>
    <style>
      .grid-line { stroke: #CCCCCC; stroke-width: 1; }
      .hilbert-curve { fill: none; stroke: #FF6B35; stroke-width: 3.0; stroke-linecap: round; stroke-linejoin: round; }
      .grid-box { fill: none; stroke: #333333; stroke-width: 2; }
    </style>
  </defs>

  <rect x="50" y="50" width="1180" height="540" class="grid-box"/>

  <g id="grid">
    <line x1="123" y1="50" x2="123" y2="590" class="grid-line"/>
    <line x1="197" y1="50" x2="197" y2="590" class="grid-line"/>
    <line x1="271" y1="50" x2="271" y2="590" class="grid-line"/>
    <line x1="345" y1="50" x2="345" y2="590" class="grid-line"/>
    <line x1="418" y1="50" x2="418" y2="590" class="grid-line"/>
    <line x1="492" y1="50" x2="492" y2="590" class="grid-line"/>
    <line x1="566" y1="50" x2="566" y2="590" class="grid-line"/>
    <line x1="640" y1="50" x2="640" y2="590" class="grid-line"/>
    <line x1="713" y1="50" x2="713" y2="590" class="grid-line"/>
    <line x1="787" y1="50" x2="787" y2="590" class="grid-line"/>
    <line x1="861" y1="50" x2="861" y2="590" class="grid-line"/>
    <line x1="935" y1="50" x2="935" y2="590" class="grid-line"/>
    <line x1="1008" y1="50" x2="1008" y2="590" class="grid-line"/>
    <line x1="1082" y1="50" x2="1082" y2="590" class="grid-line"/>
    <line x1="1156" y1="50" x2="1156" y2="590" class="grid-line"/>
    <line x1="50" y1="83" x2="1230" y2="83" class="grid-line"/>
    <line x1="50" y1="117" x2="1230" y2="117" class="grid-line"/>
    <line x1="50" y1="151" x2="1230" y2="151" class="grid-line"/>
    <line x1="50" y1="185" x2="1230" y2="185" class="grid-line"/>
    <line x1="50" y1="218" x2="1230" y2="218" class="grid-line"/>
    <line x1="50" y1="252" x2="1230" y2="252" class="grid-line"/>
    <line x1="50" y1="286" x2="1230" y2="286" class="grid-line"/>
    <line x1="50" y1="320" x2="1230" y2="320" class="grid-line"/>
    <line x1="50" y1="353" x2="1230" y2="353" class="grid-line"/>
    <line x1="50" y1="387" x2="1230" y2="387" class="grid-line"/>
    <line x1="50" y1="421" x2="1230" y2="421" class="grid-line"/>
    <line x1="50" y1="455" x2="1230" y2="455" class="grid-line"/>
    <line x1="50" y1="488" x2="1230" y2="488" class="grid-line"/>
    <line x1="50" y1="522" x2="1230" y2="522" class="grid-line"/>
    <line x1="50" y1="556" x2="1230" y2="556" class="grid-line"/>
  </g>

  <!-- Hilbert curve -->
  <path d="M 86.88 573.12 L 160.62 573.12 L 160.62 539.38 L 86.88 539.38 L 86.88 505.62 L 86.88 471.88 L 160.62 471.88 L 160.62 505.62 L 234.38 505.62 L 234.38 471.88 L 308.12 471.88 L 308.12 505.62 L 308.12 539.38 L 234.38 539.38 L 234.38 573.12 L 308.12 573.12 L 381.88 573.12 L 381.88 539.38 L 455.62 539.38 L 455.62 573.12 L 529.38 573.12 L 603.12 573.12 L 603.12 539.38 L 529.38 539.38 L 529.38 505.62 L 603.12 505.62 L 603.12 471.88 L 529.38 471.88 L 455.62 471.88 L 455.62 505.62 L 381.88 505.62 L 381.88 471.88 L 381.88 438.12 L 381.88 404.38 L 455.62 404.38 L 455.62 438.12 L 529.38 438.12 L 603.12 438.12 L 603.12 404.38 L 529.38 404.38 L 529.38 370.62 L 603.12 370.62 L 603.12 336.88 L 529.38 336.88 L 455.62 336.88 L 455.62 370.62 L 381.88 370.62 L 381.88 336.88 L 308.12 336.88 L 234.38 336.88 L 234.38 370.62 L 308.12 370.62 L 308.12 404.38 L 308.12 438.12 L 234.38 438.12 L 234.38 404.38 L 160.62 404.38 L 160.62 438.12 L 86.88 438.12 L 86.88 404.38 L 86.88 370.62 L 160.62 370.62 L 160.62 336.88 L 86.88 336.88 L 86.88 303.12 L 86.88 269.38 L 160.62 269.38 L 160.62 303.12 L 234.38 303.12 L 308.12 303.12 L 308.12 269.38 L 234.38 269.38 L 234.38 235.62 L 308.12 235.62 L 308.12 201.88 L 234.38 201.88 L 160.62 201.88 L 160.62 235.62 L 86.88 235.62 L 86.88 201.88 L 86.88 168.12 L 160.62 168.12 L 160.62 134.38 L 86.88 134.38 L 86.88 100.62 L 86.88 66.88 L 160.62 66.88 L 160.62 100.62 L 234.38 100.62 L 234.38 66.88 L 308.12 66.88 L 308.12 100.62 L 308.12 134.38 L 234.38 134.38 L 234.38 168.12 L 308.12 168.12 L 381.88 168.12 L 455.62 168.12 L 455.62 134.38 L 381.88 134.38 L 381.88 100.62 L 381.88 66.88 L 455.62 66.88 L 455.62 100.62 L 529.38 100.62 L 529.38 66.88 L 603.12 66.88 L 603.12 100.62 L 603.12 134.38 L 529.38 134.38 L 529.38 168.12 L 603.12 168.12 L 603.12 201.88 L 603.12 235.62 L 529.38 235.62 L 529.38 201.88 L 455.62 201.88 L 381.88 201.88 L 381.88 235.62 L 455.62 235.62 L 455.62 269.38 L 381.88 269.38 L 381.88 303.12 L 455.62 303.12 L 529.38 303.12 L 529.38 269.38 L 603.12 269.38 L 603.12 303.12 L 676.88 303.12 L 676.88 269.38 L 750.62 269.38 L 750.62 303.12 L 824.38 303.12 L 898.12 303.12 L 898.12 269.38 L 824.38 269.38 L 824.38 235.62 L 898.12 235.62 L 898.12 201.88 L 824.38 201.88 L 750.62 201.88 L 750.62 235.62 L 676.88 235.62 L 676.88 201.88 L 676.88 168.12 L 750.62 168.12 L 750.62 134.38 L 676.88 134.38 L 676.88 100.62 L 676.88 66.88 L 750.62 66.88 L 750.62 100.62 L 824.38 100.62 L 824.38 66.88 L 898.12 66.88 L 898.12 100.62 L 898.12 134.38 L 824.38 134.38 L 824.38 168.12 L 898.12 168.12 L 971.88 168.12 L 1045.62 168.12 L 1045.62 134.38 L 971.88 134.38 L 971.88 100.62 L 971.88 66.88 L 1045.62 66.88 L 1045.62 100.62 L 1119.38 100.62 L 1119.38 66.88 L 1193.12 66.88 L 1193.12 100.62 L 1193.12 134.38 L 1119.38 134.38 L 1119.38 168.12 L 1193.12 168.12 L 1193.12 201.88 L 1193.12 235.62 L 1119.38 235.62 L 1119.38 201.88 L 1045.62 201.88 L 971.88 201.88 L 971.88 235.62 L 1045.62 235.62 L 1045.62 269.38 L 971.88 269.38 L 971.88 303.12 L 1045.62 303.12 L 1119.38 303.12 L 1119.38 269.38 L 1193.12 269.38 L 1193.12 303.12 L 1193.12 336.88 L 1119.38 336.88 L 1119.38 370.62 L 1193.12 370.62 L 1193.12 404.38 L 1193.12 438.12 L 1119.38 438.12 L 1119.38 404.38 L 1045.62 404.38 L 1045.62 438.12 L 971.88 438.12 L 971.88 404.38 L 971.88 370.62 L 1045.62 370.62 L 1045.62 336.88 L 971.88 336.88 L 898.12 336.88 L 898.12 370.62 L 824.38 370.62 L 824.38 336.88 L 750.62 336.88 L 676.88 336.88 L 676.88 370.62 L 750.62 370.62 L 750.62 404.38 L 676.88 404.38 L 676.88 438.12 L 750.62 438.12 L 824.38 438.12 L 824.38 404.38 L 898.12 404.38 L 898.12 438.12 L 898.12 471.88 L 898.12 505.62 L 824.38 505.62 L 824.38 471.88 L 750.62 471.88 L 676.88 471.88 L 676.88 505.62 L 750.62 505.62 L 750.62 539.38 L 676.88 539.38 L 676.88 573.12 L 750.62 573.12 L 824.38 573.12 L 824.38 539.38 L 898.12 539.38 L 898.12 573.12 L 971.88 573.12 L 1045.62 573.12 L 1045.62 539.38 L 971.88 539.38 L 971.88 505.62 L 971.88 471.88 L 1045.62 471.88 L 1045.62 505.62 L 1119.38 505.62 L 1119.38 471.88 L 1193.12 471.88 L 1193.12 505.62 L 1193.12 539.38 L 1119.38 539.38 L 1119.38 573.12 L 1193.12 573.12" class="hilbert-curve"/>
</svg>
